<svg width="45" height="45" viewBox="0 0 45 45" fill="none" xmlns="http://www.w3.org/2000/svg">
<path d="M20.625 26.25H16.875C16.875 16.9313 24.4312 9.375 33.75 9.375V13.125C26.4937 13.125 20.625 18.9938 20.625 26.25ZM33.75 20.625V16.875C28.575 16.875 24.375 21.075 24.375 26.25H28.125C28.125 23.1375 30.6375 20.625 33.75 20.625ZM13.125 7.5C13.125 5.41875 11.4563 3.75 9.375 3.75C7.29375 3.75 5.625 5.41875 5.625 7.5C5.625 9.58125 7.29375 11.25 9.375 11.25C11.4563 11.25 13.125 9.58125 13.125 7.5ZM21.4688 8.4375H17.7188C17.2687 11.1 14.9812 13.125 12.1875 13.125H6.5625C5.00625 13.125 3.75 14.3813 3.75 15.9375V20.625H15V16.3875C18.4875 15.2812 21.0938 12.2063 21.4688 8.4375ZM35.625 31.875C37.7062 31.875 39.375 30.2062 39.375 28.125C39.375 26.0438 37.7062 24.375 35.625 24.375C33.5438 24.375 31.875 26.0438 31.875 28.125C31.875 30.2062 33.5438 31.875 35.625 31.875ZM38.4375 33.75H32.8125C30.0187 33.75 27.7313 31.725 27.2812 29.0625H23.5312C23.9062 32.8312 26.5125 35.9062 30 37.0125V41.25H41.25V36.5625C41.25 35.0063 39.9938 33.75 38.4375 33.75Z" fill="#3A2DCE"/>
</svg>
