<svg width="45" height="45" viewBox="0 0 45 45" fill="none" xmlns="http://www.w3.org/2000/svg">
<path opacity="0.3" d="M22.5 26.25C19.4062 26.25 16.875 23.7187 16.875 20.625V9.375H28.125V20.625C28.125 23.7187 25.5938 26.25 22.5 26.25Z" fill="#FFB305"/>
<path d="M35.625 9.375H31.875V5.625H13.125V9.375H9.375C7.3125 9.375 5.625 11.0625 5.625 13.125V15C5.625 19.7812 9.225 23.6812 13.8562 24.2625C15.0375 27.075 17.5688 29.1937 20.625 29.8125V35.625H13.125V39.375H31.875V35.625H24.375V29.8125C27.4312 29.1937 29.9625 27.075 31.1438 24.2625C35.775 23.6812 39.375 19.7812 39.375 15V13.125C39.375 11.0625 37.6875 9.375 35.625 9.375ZM9.375 15V13.125H13.125V20.2875C10.95 19.5 9.375 17.4375 9.375 15ZM22.5 26.25C19.4062 26.25 16.875 23.7188 16.875 20.625V9.375H28.125V20.625C28.125 23.7188 25.5938 26.25 22.5 26.25ZM35.625 15C35.625 17.4375 34.05 19.5 31.875 20.2875V13.125H35.625V15Z" fill="#FFB305"/>
</svg>
