<svg width="45" height="45" viewBox="0 0 45 45" fill="none" xmlns="http://www.w3.org/2000/svg">
<path opacity="0.3" d="M24.375 20.7562L28.125 18.5062V7.5H24.375V20.7562Z" fill="#1BCEAE"/>
<path opacity="0.3" d="M16.875 7.5V18.5062L20.625 20.7562V7.5H16.875Z" fill="#1BCEAE"/>
<path d="M31.875 19.5563V3.75H13.125V19.5563C13.125 20.2125 13.4625 20.8313 14.0437 21.1688L21.8813 25.875L20.025 30.2625L13.6312 30.8063L18.4875 35.0063L17.0062 41.25L22.5 37.9313L27.9938 41.25L26.5312 35.0063L31.3875 30.8063L24.9937 30.2625L23.1375 25.875L30.975 21.1688C31.5375 20.8313 31.875 20.2313 31.875 19.5563ZM20.625 20.7563L16.875 18.5063V7.5H20.625V20.7563ZM28.125 18.5063L24.375 20.7563V7.5H28.125V18.5063Z" fill="#1BCEAE"/>
</svg>
