<svg width="38" height="37" viewBox="0 0 38 37" fill="none" xmlns="http://www.w3.org/2000/svg">
<path opacity="0.3" d="M19 21.5833C16.3875 21.5833 14.25 19.5021 14.25 16.9583V7.70834H23.75V16.9583C23.75 19.5021 21.6125 21.5833 19 21.5833Z" fill="#ED841F"/>
<path d="M30.0833 7.70833H26.9167V4.625H11.0833V7.70833H7.91667C6.175 7.70833 4.75 9.09583 4.75 10.7917V12.3333C4.75 16.2646 7.79 19.4712 11.7008 19.9492C12.6983 22.2617 14.8358 24.0037 17.4167 24.5125V29.2917H11.0833V32.375H26.9167V29.2917H20.5833V24.5125C23.1642 24.0037 25.3017 22.2617 26.2992 19.9492C30.21 19.4712 33.25 16.2646 33.25 12.3333V10.7917C33.25 9.09583 31.825 7.70833 30.0833 7.70833ZM7.91667 12.3333V10.7917H11.0833V16.6808C9.24667 16.0333 7.91667 14.3375 7.91667 12.3333ZM19 21.5833C16.3875 21.5833 14.25 19.5021 14.25 16.9583V7.70833H23.75V16.9583C23.75 19.5021 21.6125 21.5833 19 21.5833ZM30.0833 12.3333C30.0833 14.3375 28.7533 16.0333 26.9167 16.6808V10.7917H30.0833V12.3333Z" fill="#ED841F"/>
</svg>
