<svg width="40" height="40" viewBox="0 0 40 40" fill="none" xmlns="http://www.w3.org/2000/svg">
<g opacity="0.45">
<path opacity="0.3" d="M31.6663 28.55V16.9667C28.1663 17.6 24.9163 19.2167 22.2663 21.6833L19.9997 23.8L17.733 21.6833C15.083 19.2167 11.833 17.6 8.33301 16.9667V28.55C12.5497 29.1167 16.5663 30.7167 19.9997 33.2667C23.4497 30.7333 27.4497 29.1167 31.6663 28.55Z" fill="#068D65"/>
<path opacity="0.3" d="M20.0003 11.6667C21.8413 11.6667 23.3337 10.1743 23.3337 8.33333C23.3337 6.49238 21.8413 5 20.0003 5C18.1594 5 16.667 6.49238 16.667 8.33333C16.667 10.1743 18.1594 11.6667 20.0003 11.6667Z" fill="#068D65"/>
<path d="M26.6667 8.33333C26.6667 4.65 23.6833 1.66666 20 1.66666C16.3167 1.66666 13.3333 4.65 13.3333 8.33333C13.3333 12.0167 16.3167 15 20 15C23.6833 15 26.6667 12.0167 26.6667 8.33333ZM16.6667 8.33333C16.6667 6.5 18.1667 5 20 5C21.8333 5 23.3333 6.5 23.3333 8.33333C23.3333 10.1667 21.8333 11.6667 20 11.6667C18.1667 11.6667 16.6667 10.1667 16.6667 8.33333ZM5 31.6667C10.8 31.6667 16.0667 33.9167 20 37.5833C23.9333 33.9333 29.2 31.6667 35 31.6667V13.3333C29.2 13.3333 23.9333 15.5833 20 19.25C16.0667 15.5833 10.8 13.3333 5 13.3333V31.6667ZM8.33333 16.9667C11.8333 17.6 15.0833 19.2167 17.7333 21.6833L20 23.8L22.2667 21.6833C24.9167 19.2167 28.1667 17.6 31.6667 16.9667V28.55C27.45 29.1167 23.45 30.7167 20 33.25C16.5667 30.7167 12.55 29.1 8.33333 28.5333V16.9667Z" fill="#068D65"/>
</g>
</svg>
